<svg width="54" height="16" viewBox="0 0 54 16" fill="none" xmlns="http://www.w3.org/2000/svg">
<path fill-rule="evenodd" clip-rule="evenodd" d="M0 8C-2.12295e-08 8.41728 0.338274 8.75555 0.755556 8.75555L51.0413 8.75555L46.9886 12.8083C46.6935 13.1034 46.6935 13.5818 46.9886 13.8768C47.2836 14.1719 47.762 14.1719 48.0571 13.8768L53.3997 8.53425C53.6947 8.23919 53.6947 7.7608 53.3997 7.46574L48.0571 2.12315C47.762 1.82809 47.2836 1.82809 46.9886 2.12315C46.6935 2.41822 46.6935 2.89661 46.9886 3.19167L51.0413 7.24444L0.755556 7.24444C0.338274 7.24444 -2.12295e-08 7.58271 0 8Z" fill="#8CA75C"/>
</svg>
