<svg width="50" height="50" viewBox="0 0 50 50" fill="none" xmlns="http://www.w3.org/2000/svg">
<rect x="0.208333" y="0.208333" width="49.5833" height="49.5833" rx="24.7917" fill="#181818"/>
<rect x="0.208333" y="0.208333" width="49.5833" height="49.5833" rx="24.7917" stroke="#9CDE6A" stroke-width="0.416667"/>
<g clip-path="url(#clip0_1_394)">
<path d="M30.4051 17.3377C30.4051 17.3377 29.1743 17.1453 28.4321 18.4441" stroke="#9CDE6A" stroke-width="0.927734" stroke-miterlimit="10"/>
<path d="M20.6699 36.6275H29.3288M20.5462 34.7721H29.4525M20.0514 32.9166H29.9473M27.7826 38.483V39.1015C27.7826 39.7847 27.2288 40.3385 26.5456 40.3385H23.4531C22.7699 40.3385 22.2161 39.7847 22.2161 39.1015V38.483M9.16602 21.5982H11.5163M38.4824 21.5982H40.8327M10.1209 27.0135L12.3294 26.2097M37.6693 16.9868L39.8778 16.1829M12.8703 31.7757L14.6707 30.265M35.328 12.9314L37.1284 11.4207M39.8778 27.0135L37.6693 26.2097M12.3294 16.9868L10.1209 16.1829M37.1284 31.7757L35.328 30.265M14.6707 12.9314L12.8703 11.4207M31.2952 21.6448C31.9695 21.2342 32.4212 20.4957 32.4212 19.65C32.4212 18.47 31.5439 17.4968 30.4049 17.3375C30.4419 17.2045 30.4681 17.0672 30.4681 16.9224C30.4681 16.0616 29.7685 15.3639 28.9056 15.3639C28.8606 15.3639 28.8183 15.3733 28.7742 15.377C28.456 14.4627 27.5869 13.8053 26.5618 13.8053C25.9607 13.8053 25.4142 14.0329 24.9993 14.4041M31.2952 21.6448C31.7401 22.0019 32.0306 22.5428 32.0306 23.1568C32.0306 23.9126 31.5945 24.5605 30.9639 24.8836C31.1413 25.1769 31.2494 25.5169 31.2494 25.8844C31.2494 26.9158 30.4432 27.7515 29.4265 27.8195M31.2952 21.6448C31.2952 21.6448 29.7308 20.5777 28.6175 22.7115M24.9993 14.4041C24.5845 14.033 24.038 13.8053 23.4369 13.8053C22.4118 13.8053 21.5428 14.4627 21.2245 15.377C21.1804 15.3733 21.1381 15.3639 21.0931 15.3639C20.2301 15.3639 19.5306 16.0616 19.5306 16.9224C19.5306 17.0672 19.5568 17.2045 19.5938 17.3375M24.9993 14.4041V28.5708M19.5938 17.3375C18.4548 17.4968 17.5775 18.4699 17.5775 19.65C17.5775 20.4957 18.0292 21.2342 18.7035 21.6448M19.5938 17.3375C19.5938 17.3375 20.8245 17.1451 21.5667 18.4439M18.7035 21.6448C18.2586 22.0019 17.9681 22.5428 17.9681 23.1568C17.9681 23.9126 18.4041 24.5605 19.0348 24.8836C18.8574 25.1769 18.7493 25.5169 18.7493 25.8844C18.7493 26.9158 19.5555 27.7515 20.5722 27.8195M18.7035 21.6448C18.7035 21.6448 20.2679 20.5777 21.3812 22.7115M20.5722 27.8195C21.0087 28.7472 21.9509 29.3912 23.0462 29.3912C23.8118 29.3912 24.503 29.0765 24.9993 28.5708M20.5722 27.8195C20.5722 27.8195 22.3089 27.9068 22.1234 25.9586M24.9993 28.5708C25.4957 29.0765 26.1869 29.3912 26.9525 29.3912C28.0478 29.3912 28.99 28.7472 29.4265 27.8195M29.4265 27.8195C29.4265 27.8195 27.6898 27.9068 27.8753 25.9586M34.8952 23.0208V22.093M34.8952 21.1034V20.1757M13.248 21.4127C13.248 14.9226 18.5093 9.66138 24.9993 9.66138C31.4894 9.66138 36.7507 14.9226 36.7507 21.4127C36.7507 25.4903 34.6738 29.0826 31.5201 31.19C30.149 32.1062 29.3288 33.6492 29.3288 35.2984V37.246C29.3288 37.9292 28.775 38.483 28.0918 38.483H21.9069C21.2237 38.483 20.6699 37.9292 20.6699 37.246V35.2984C20.6699 33.6493 19.8497 32.1063 18.4786 31.19C15.3249 29.0826 13.248 25.4903 13.248 21.4127Z" stroke="#9CDE6A" stroke-width="0.833333" stroke-miterlimit="10"/>
</g>
<circle cx="41.25" cy="41.25" r="8.33333" fill="#9CDE6A" stroke="#181818" stroke-width="0.833333"/>
<path d="M38.8368 41.6349L40.6045 43.4027L44.3227 39.6845" stroke="#181818" stroke-width="1.25" stroke-linecap="round" stroke-linejoin="round"/>
<defs>
<clipPath id="clip0_1_394">
<rect width="31.6667" height="31.6667" fill="white" transform="translate(9.16675 9.16675)"/>
</clipPath>
</defs>
</svg>
