<svg width="181" height="48" viewBox="0 0 181 48" fill="none" xmlns="http://www.w3.org/2000/svg">
<path d="M42.3879 25.0983C40.5776 25.0983 38.9685 24.76 37.5605 24.0834C36.1525 23.3886 35.0462 22.4286 34.2416 21.2034C33.437 19.9783 33.0348 18.552 33.0348 16.9246C33.0348 15.3154 33.4096 13.9074 34.1593 12.7006C34.9273 11.4754 35.9788 10.5246 37.3136 9.84801C38.6668 9.15315 40.2119 8.80572 41.949 8.80572C43.6862 8.80572 45.1856 9.19887 46.4473 9.98515C47.7273 10.7532 48.7148 11.8412 49.4096 13.2492C50.1045 14.6572 50.4519 16.312 50.4519 18.2137H35.8325V15.4983H48.669L46.8862 16.5132C46.8313 15.4892 46.5845 14.6114 46.1456 13.88C45.725 13.1486 45.149 12.5909 44.4176 12.2069C43.7045 11.8046 42.8542 11.6034 41.8668 11.6034C40.8245 11.6034 39.9102 11.8137 39.1239 12.2343C38.3559 12.6549 37.7525 13.2492 37.3136 14.0172C36.8748 14.7669 36.6553 15.6629 36.6553 16.7052C36.6553 17.8572 36.9113 18.8537 37.4233 19.6949C37.9536 20.536 38.6942 21.1852 39.645 21.6423C40.6142 22.0812 41.757 22.3006 43.0736 22.3006C44.2622 22.3006 45.4782 22.1177 46.7216 21.752C47.965 21.368 49.0622 20.8377 50.013 20.1612V22.7394C49.0622 23.4709 47.901 24.0469 46.5296 24.4674C45.1765 24.888 43.7959 25.0983 42.3879 25.0983ZM55.8333 9.18972H71.111V24.7143H67.5453V10.2869L69.191 11.9326H57.6161L59.1521 10.6709C59.2435 11.8046 59.3167 12.8834 59.3715 13.9074C59.4447 14.9132 59.4813 15.8183 59.4813 16.6229C59.4813 19.5486 59.0698 21.6789 58.247 23.0137C57.4241 24.3486 56.0984 25.016 54.2698 25.016C53.7761 25.016 53.3007 24.9612 52.8435 24.8514C52.3864 24.7417 51.9475 24.568 51.527 24.3303V21.6697C51.8561 21.7977 52.1761 21.8983 52.487 21.9714C52.8161 22.0446 53.1178 22.0812 53.3921 22.0812C54.3978 22.0812 55.1201 21.6149 55.559 20.6823C56.0161 19.7497 56.2447 18.232 56.2447 16.1292C56.2447 15.2149 56.2081 14.1726 56.135 13.0023C56.0801 11.832 55.9795 10.5612 55.8333 9.18972ZM83.37 25.0983C81.5598 25.0983 79.9506 24.76 78.5426 24.0834C77.1346 23.3886 76.0283 22.4286 75.2238 21.2034C74.4192 19.9783 74.0169 18.552 74.0169 16.9246C74.0169 15.3154 74.3918 13.9074 75.1415 12.7006C75.9095 11.4754 76.9609 10.5246 78.2958 9.84801C79.6489 9.15315 81.194 8.80572 82.9312 8.80572C84.6683 8.80572 86.1678 9.19887 87.4295 9.98515C88.7095 10.7532 89.6969 11.8412 90.3918 13.2492C91.0866 14.6572 91.434 16.312 91.434 18.2137H76.8146V15.4983H89.6512L87.8683 16.5132C87.8135 15.4892 87.5666 14.6114 87.1278 13.88C86.7072 13.1486 86.1312 12.5909 85.3998 12.2069C84.6866 11.8046 83.8363 11.6034 82.8489 11.6034C81.8066 11.6034 80.8923 11.8137 80.106 12.2343C79.338 12.6549 78.7346 13.2492 78.2958 14.0172C77.8569 14.7669 77.6375 15.6629 77.6375 16.7052C77.6375 17.8572 77.8935 18.8537 78.4055 19.6949C78.9358 20.536 79.6763 21.1852 80.6272 21.6423C81.5963 22.0812 82.7392 22.3006 84.0558 22.3006C85.2443 22.3006 86.4603 22.1177 87.7038 21.752C88.9472 21.368 90.0443 20.8377 90.9952 20.1612V22.7394C90.0443 23.4709 88.8832 24.0469 87.5118 24.4674C86.1586 24.888 84.778 25.0983 83.37 25.0983ZM78.8443 7.13258C78.186 7.13258 77.6466 6.95887 77.226 6.61144C76.8238 6.24572 76.6226 5.76115 76.6226 5.15772C76.6226 4.57258 76.8238 4.10629 77.226 3.75887C77.6466 3.39315 78.186 3.21029 78.8443 3.21029C79.5026 3.21029 80.0329 3.39315 80.4352 3.75887C80.8558 4.10629 81.066 4.57258 81.066 5.15772C81.066 5.76115 80.8558 6.24572 80.4352 6.61144C80.0329 6.95887 79.5026 7.13258 78.8443 7.13258ZM86.8809 7.13258C86.2226 7.13258 85.6832 6.95887 85.2626 6.61144C84.8603 6.24572 84.6592 5.76115 84.6592 5.15772C84.6592 4.57258 84.8603 4.10629 85.2626 3.75887C85.6832 3.39315 86.2226 3.21029 86.8809 3.21029C87.5209 3.21029 88.042 3.39315 88.4443 3.75887C88.8649 4.10629 89.0752 4.57258 89.0752 5.15772C89.0752 5.76115 88.8649 6.24572 88.4443 6.61144C88.042 6.95887 87.5209 7.13258 86.8809 7.13258ZM94.3678 9.18972H97.9061V24.7143H94.3678V9.18972ZM107.561 9.18972H111.099V24.7143H107.561V9.18972ZM96.3701 15.4709H109.042V18.2137H96.3701V15.4709ZM123.471 25.0983C121.587 25.0983 119.933 24.76 118.506 24.0834C117.098 23.3886 115.992 22.4286 115.187 21.2034C114.401 19.9783 114.008 18.5612 114.008 16.952C114.008 15.3246 114.401 13.9074 115.187 12.7006C115.992 11.4754 117.098 10.5246 118.506 9.84801C119.933 9.15315 121.587 8.80572 123.471 8.80572C125.354 8.80572 127 9.15315 128.408 9.84801C129.834 10.5246 130.941 11.4754 131.727 12.7006C132.531 13.9074 132.934 15.3246 132.934 16.952C132.934 18.5612 132.531 19.9783 131.727 21.2034C130.941 22.4286 129.834 23.3886 128.408 24.0834C127 24.76 125.354 25.0983 123.471 25.0983ZM123.471 22.3006C124.678 22.3006 125.711 22.0812 126.57 21.6423C127.448 21.2034 128.125 20.5909 128.6 19.8046C129.075 19 129.313 18.0492 129.313 16.952C129.313 15.8549 129.075 14.9132 128.6 14.1269C128.125 13.3223 127.448 12.7006 126.57 12.2617C125.711 11.8229 124.678 11.6034 123.471 11.6034C122.282 11.6034 121.249 11.8229 120.371 12.2617C119.494 12.7006 118.817 13.3223 118.342 14.1269C117.866 14.9132 117.629 15.8549 117.629 16.952C117.629 18.0492 117.866 19 118.342 19.8046C118.817 20.5909 119.494 21.2034 120.371 21.6423C121.249 22.0812 122.282 22.3006 123.471 22.3006ZM144.308 25.0983C142.497 25.0983 140.888 24.76 139.48 24.0834C138.072 23.3886 136.966 22.4286 136.161 21.2034C135.357 19.9783 134.954 18.552 134.954 16.9246C134.954 15.3154 135.329 13.9074 136.079 12.7006C136.847 11.4754 137.898 10.5246 139.233 9.84801C140.586 9.15315 142.132 8.80572 143.869 8.80572C145.606 8.80572 147.105 9.19887 148.367 9.98515C149.647 10.7532 150.634 11.8412 151.329 13.2492C152.024 14.6572 152.372 16.312 152.372 18.2137H137.752V15.4983H150.589L148.806 16.5132C148.751 15.4892 148.504 14.6114 148.065 13.88C147.645 13.1486 147.069 12.5909 146.337 12.2069C145.624 11.8046 144.774 11.6034 143.786 11.6034C142.744 11.6034 141.83 11.8137 141.044 12.2343C140.276 12.6549 139.672 13.2492 139.233 14.0172C138.794 14.7669 138.575 15.6629 138.575 16.7052C138.575 17.8572 138.831 18.8537 139.343 19.6949C139.873 20.536 140.614 21.1852 141.565 21.6423C142.534 22.0812 143.677 22.3006 144.993 22.3006C146.182 22.3006 147.398 22.1177 148.641 21.752C149.885 21.368 150.982 20.8377 151.933 20.1612V22.7394C150.982 23.4709 149.821 24.0469 148.449 24.4674C147.096 24.888 145.716 25.0983 144.308 25.0983Z" fill="white" fill-opacity="0.8"/>
<path d="M170.375 45.6697C168.51 45.6697 166.859 45.3314 165.424 44.6549C163.998 43.9691 162.887 43.0091 162.091 41.7749C161.305 40.5406 160.912 39.1234 160.912 37.5234C160.912 35.9234 161.305 34.5063 162.091 33.272C162.887 32.0377 163.998 31.0823 165.424 30.4057C166.859 29.72 168.51 29.3771 170.375 29.3771C172.24 29.3771 173.886 29.72 175.312 30.4057C176.747 31.0823 177.858 32.0377 178.645 33.272C179.44 34.5063 179.838 35.9234 179.838 37.5234C179.838 39.1234 179.44 40.5406 178.645 41.7749C177.858 43.0091 176.747 43.9691 175.312 44.6549C173.886 45.3314 172.24 45.6697 170.375 45.6697ZM170.375 42.872C171.563 42.872 172.597 42.6571 173.474 42.2274C174.352 41.7886 175.029 41.1668 175.504 40.3623C175.979 39.5577 176.217 38.6114 176.217 37.5234C176.217 36.4446 175.979 35.5028 175.504 34.6983C175.029 33.8937 174.352 33.272 173.474 32.8331C172.597 32.3943 171.563 32.1749 170.375 32.1749C169.186 32.1749 168.153 32.3943 167.275 32.8331C166.398 33.272 165.721 33.8937 165.246 34.6983C164.77 35.5028 164.533 36.4446 164.533 37.5234C164.533 38.6114 164.77 39.5577 165.246 40.3623C165.721 41.1668 166.398 41.7886 167.275 42.2274C168.153 42.6571 169.186 42.872 170.375 42.872Z" fill="white" fill-opacity="0.8"/>
<path d="M155.278 37.1806C156.467 37.4183 157.368 37.8617 157.98 38.5109C158.602 39.16 158.913 39.992 158.913 41.0069C158.913 41.8846 158.693 42.648 158.254 43.2972C157.825 43.9372 157.203 44.4309 156.389 44.7783C155.576 45.1166 154.606 45.2857 153.482 45.2857H141.88V37.5235V29.7612H153.125C154.113 29.7612 154.968 29.9212 155.69 30.2412C156.412 30.552 156.965 31.0046 157.349 31.5989C157.733 32.184 157.925 32.8789 157.925 33.6835C157.925 34.5063 157.697 35.2149 157.24 35.8092C156.782 36.4035 156.129 36.8606 155.278 37.1806ZM154.332 34.232C154.332 33.6103 154.136 33.1212 153.742 32.7646C153.349 32.408 152.732 32.2297 151.891 32.2297H145.514L145.541 36.2617H151.644C152.549 36.2617 153.221 36.0835 153.66 35.7269C154.108 35.3612 154.332 34.8629 154.332 34.232ZM152.577 42.8172C153.528 42.8172 154.222 42.6389 154.661 42.2823C155.1 41.9166 155.32 41.3817 155.32 40.6777C155.32 40.0377 155.059 39.5257 154.538 39.1417C154.026 38.7577 153.235 38.5657 152.165 38.5657H145.569L145.514 42.8172H152.577Z" fill="white" fill-opacity="0.8"/>
<path d="M123.531 29.7612H139.988V32.5589H133.542V45.2857H129.976V32.5589H123.531V29.7612Z" fill="white" fill-opacity="0.8"/>
<path d="M123.031 39.1691C122.848 40.44 122.345 41.5691 121.522 42.5566C120.708 43.544 119.652 44.312 118.354 44.8606C117.065 45.4 115.643 45.6697 114.089 45.6697C112.315 45.6697 110.738 45.3269 109.358 44.6411C107.986 43.9554 106.916 42.9954 106.148 41.7611C105.39 40.5269 105.01 39.1143 105.01 37.5234C105.01 35.9326 105.39 34.52 106.148 33.2857C106.916 32.0514 107.986 31.0914 109.358 30.4057C110.738 29.72 112.315 29.3771 114.089 29.3771C115.643 29.3771 117.065 29.6514 118.354 30.2C119.652 30.7486 120.708 31.5166 121.522 32.504C122.345 33.4914 122.848 34.6251 123.031 35.9051H119.438C119.264 35.1371 118.93 34.4743 118.436 33.9166C117.943 33.3497 117.321 32.92 116.571 32.6274C115.831 32.3257 115.003 32.1749 114.089 32.1749C112.992 32.1749 112.032 32.3897 111.209 32.8194C110.386 33.2491 109.751 33.8663 109.303 34.6709C108.855 35.4754 108.631 36.4263 108.631 37.5234C108.631 38.6206 108.855 39.5714 109.303 40.376C109.751 41.1806 110.386 41.7977 111.209 42.2274C112.032 42.6571 112.992 42.872 114.089 42.872C115.003 42.872 115.835 42.7211 116.585 42.4194C117.335 42.1177 117.956 41.688 118.45 41.1303C118.944 40.5634 119.273 39.9097 119.438 39.1691H123.031Z" fill="white" fill-opacity="0.8"/>
<path d="M87.8519 29.7612H104.309V32.5589H97.8634V45.2857H94.2976V32.5589H87.8519V29.7612Z" fill="white" fill-opacity="0.8"/>
<path d="M82.0631 36.0423V29.7612H85.6014V45.2857H82.0631V38.7852H72.4083V45.2857H68.87V29.7612H72.4083V36.0423H82.0631Z" fill="white" fill-opacity="0.8"/>
<path d="M52.3043 38.7851C52.6152 40.0743 53.3146 41.08 54.4026 41.8023C55.4997 42.5154 56.8849 42.872 58.558 42.872C59.7557 42.872 60.9717 42.6846 62.206 42.3097C63.4495 41.9257 64.5466 41.4 65.4974 40.7326V43.3109C64.5374 44.0423 63.3763 44.6183 62.014 45.0389C60.6609 45.4594 59.2803 45.6697 57.8723 45.6697C56.0712 45.6697 54.4574 45.3269 53.0312 44.6411C51.614 43.9554 50.5077 42.9954 49.7123 41.7611C48.9169 40.5177 48.5192 39.096 48.5192 37.496C48.5192 35.9051 48.8986 34.4971 49.6575 33.272C50.4163 32.0377 51.4723 31.0823 52.8255 30.4057C54.1786 29.72 55.7146 29.3771 57.4335 29.3771C59.1432 29.3771 60.638 29.7657 61.918 30.5429C63.2072 31.32 64.1992 32.4217 64.894 33.848C65.5889 35.2651 65.9363 36.9108 65.9363 38.7851H52.3043ZM57.3512 32.1749C56.4552 32.1749 55.6506 32.3349 54.9375 32.6549C54.2335 32.9657 53.6483 33.4137 53.182 33.9989C52.7157 34.584 52.4049 35.2743 52.2495 36.0697H62.2334C61.9775 34.8354 61.4197 33.88 60.5603 33.2034C59.71 32.5177 58.6403 32.1749 57.3512 32.1749Z" fill="white" fill-opacity="0.8"/>
<path d="M35.8896 29.8571H47.1525V32.9634H39.3765V45.2857H35.8896V29.8571Z" fill="white" fill-opacity="0.8"/>
<path d="M28.9778 17.9492C29.2992 18.1724 29.6072 18.4938 29.9019 18.9135C30.2054 19.3242 30.4331 19.775 30.5848 20.2661C30.7367 20.7572 30.8125 21.2527 30.8125 21.7527C30.8125 21.816 30.807 21.9594 30.796 22.183L30.7858 22.3822C30.7769 22.7215 30.6117 23.1858 30.2903 23.775C29.9688 24.3643 29.4688 24.9313 28.7903 25.476C28.1206 26.0117 27.2144 26.4893 26.0715 26.909C25.1321 27.2493 24.0149 27.5313 22.7201 27.7551C23.3483 28.1609 23.9266 28.5946 24.4553 29.0563C25.0892 29.601 25.6517 30.1724 26.1428 30.7706C26.6428 31.3599 27.0848 31.9537 27.4688 32.5519V28.2394C27.4688 28.2394 28.2872 28.1872 29.5 27.4938C30.7128 26.8005 31.125 25.6545 31.125 25.6545V45.2885H27.4688V43.3867C27.4688 42.4402 27.3928 41.5027 27.2411 40.5742C27.0983 39.6456 26.875 38.7349 26.5714 37.842C26.536 37.7308 26.4878 37.5908 26.4266 37.4222C26.3798 37.2932 26.3253 37.1475 26.2634 36.9849C26.1722 36.7401 26.0613 36.4753 25.9303 36.1906C25.8558 36.0287 25.7749 35.8605 25.6875 35.6858C25.4464 35.1947 25.1473 34.6724 24.7902 34.1188C24.433 33.5563 24 33.0027 23.4911 32.4581C22.9911 31.9045 22.4108 31.3733 21.75 30.8644C21.0892 30.3555 20.3303 29.909 19.4733 29.5251C18.6161 29.1322 17.6562 28.8197 16.5938 28.5876C15.5402 28.3555 14.3661 28.2394 13.0714 28.2394C11.9464 28.2394 10.942 28.3376 10.058 28.534C9.18298 28.7215 8.41516 28.9849 7.75452 29.3242C7.09375 29.6545 6.53125 30.0474 6.06702 30.5027C5.61157 30.9581 5.24109 31.4537 4.95532 31.9894C4.66968 32.5251 4.45984 33.0876 4.32593 33.6769C4.19202 34.2662 4.11609 34.8599 4.09827 35.4581V35.5519C4.09827 36.0697 4.16516 36.6055 4.29907 37.159C4.43298 37.7126 4.64734 38.2572 4.94202 38.793C5.23657 39.3287 5.60718 39.8331 6.05359 40.3063C6.5 40.7795 7.02673 41.1947 7.63391 41.5519C8.24109 41.9001 8.92859 42.1769 9.69641 42.3822C10.4642 42.5876 11.3125 42.6902 12.2411 42.6902C13.2858 42.6902 14.317 42.543 15.3348 42.2483C16.3616 41.9537 17.3438 41.5027 18.2812 40.8956C19.2277 40.2795 20.1161 39.4983 20.9464 38.5519C21.7767 37.6055 22.5178 36.4849 23.1697 35.1902L25.942 36.5831C24.4152 39.6188 22.4911 41.9135 20.1697 43.467C17.8483 45.0117 15.192 45.784 12.2009 45.784H11.25C10.8661 45.784 10.433 45.7572 9.95093 45.7037C9.46875 45.659 8.94641 45.5742 8.38391 45.4492C7.82141 45.3242 7.23657 45.1367 6.62952 44.8867C6.02234 44.6367 5.40173 44.3152 4.76782 43.9224C4.14282 43.5206 3.52673 43.0206 2.91968 42.4224C1.94641 41.467 1.21423 40.4045 0.723267 39.2349C0.241089 38.0652 0 36.851 0 35.592V35.3912C0.0178223 34.5697 0.147339 33.7483 0.388428 32.9269C0.638428 32.0965 1 31.3019 1.47327 30.543C1.95532 29.784 2.55359 29.0787 3.26782 28.4269C3.98218 27.7662 4.82141 27.1947 5.78577 26.7126C6.75 26.2305 7.83484 25.851 9.04016 25.5742C10.2545 25.2974 11.5983 25.159 13.0714 25.159C13.2931 25.159 13.512 25.162 13.7279 25.1679H16.1072C17.9019 25.1679 19.4375 25.101 20.7144 24.967C22 24.8331 23.0759 24.659 23.942 24.4447C24.8081 24.2215 25.4867 23.967 25.9778 23.6813C26.4778 23.3867 26.8348 23.0831 27.0492 22.7706C27.2723 22.4581 27.384 22.15 27.384 21.8465C27.384 21.8365 27.3826 21.8042 27.3798 21.7496L27.3706 21.5786C27.3706 21.409 27.2992 21.1858 27.1562 20.909C27.0134 20.6233 26.8259 20.3733 26.5938 20.159C26.3617 19.9358 26.1295 19.7661 25.8973 19.65C25.0938 19.9893 24.2233 20.284 23.2858 20.534C22.3483 20.775 21.3795 20.976 20.3795 21.1367C19.3884 21.2885 18.3795 21.4045 17.3528 21.4849C16.3348 21.5563 15.3304 21.592 14.3394 21.592C13.2769 21.592 12.2545 21.5518 11.2723 21.4715C10.2992 21.3822 9.40186 21.2572 8.58044 21.0965C7.76794 20.9358 7.05811 20.7393 6.45093 20.5072C5.84375 20.275 5.37952 20.0117 5.05811 19.717C4.82593 19.5027 4.625 19.2617 4.45544 18.9938C4.29468 18.726 4.20544 18.5027 4.1875 18.3242C4.16968 18.1367 4.16077 18.0117 4.16077 17.9492C4.16077 17.6992 4.21875 17.4268 4.33484 17.1322C4.45984 16.8286 4.70093 16.5117 5.05811 16.1813C5.37952 15.8867 5.84375 15.6233 6.45093 15.3911C7.06702 15.15 7.78125 14.9492 8.59375 14.7885C9.41528 14.6277 10.317 14.5072 11.2992 14.4268C12.2812 14.3375 13.3081 14.2929 14.3795 14.2929C15.3617 14.2929 16.3617 14.3331 17.3795 14.4135C18.3973 14.4849 19.4019 14.601 20.3929 14.7617C21.3929 14.9135 22.3572 15.1143 23.2858 15.3643C24.2233 15.6054 25.0938 15.8956 25.8973 16.2349C26.1295 16.1188 26.3617 15.9536 26.5938 15.7393C26.8259 15.5161 27.0134 15.2661 27.1562 14.9893C27.2992 14.7036 27.3706 14.4804 27.3706 14.3197C27.3795 14.15 27.384 14.0563 27.384 14.0385C27.384 13.7349 27.2769 13.4268 27.0625 13.1143C26.8483 12.8018 26.4911 12.5027 25.9911 12.217C25.4911 11.9224 24.8081 11.6679 23.942 11.4536C23.0759 11.2304 22 11.0518 20.7144 10.9179C19.4375 10.784 17.9019 10.717 16.1072 10.717C15 10.717 13.9242 10.7706 12.8795 10.8777C11.8348 10.9849 10.8394 11.1233 9.89294 11.2929C8.95544 11.4625 8.07153 11.6545 7.24109 11.8688C6.41968 12.0831 5.66968 12.2974 4.99109 12.5117L6.67859 8.80182C7.98218 8.48041 9.41968 8.20807 10.9911 7.98486C12.5625 7.75275 14.2322 7.63666 16 7.63666C18.0983 7.63666 19.9331 7.75275 21.5045 7.98486C23.0848 8.21704 24.442 8.52954 25.5759 8.92236C26.7098 9.31525 27.6384 9.77057 28.3617 10.2885C29.0848 10.8063 29.6384 11.3554 30.0223 11.9358C30.4153 12.5072 30.6429 13.0027 30.7054 13.4224C30.741 13.6308 30.7676 13.8172 30.7854 13.9816C30.8035 14.1481 30.8125 14.2921 30.8125 14.4135C30.8125 14.7438 30.7634 15.1188 30.6653 15.5385C30.567 15.9581 30.3617 16.3956 30.0492 16.851C29.7456 17.2974 29.3884 17.6635 28.9778 17.9492ZM11.6875 18.726C12.0536 18.7438 12.4153 18.7572 12.7723 18.7661H13.5492C14.0045 18.7661 14.5358 18.7617 15.1429 18.7527C15.759 18.7349 16.4554 18.7081 17.2322 18.6724C18.009 18.6367 18.7769 18.5875 19.5358 18.525C20.2947 18.4536 21.0269 18.3733 21.7322 18.284C22.4375 18.1858 23.067 18.0742 23.6206 17.9492C22.9956 17.8063 22.2769 17.6813 21.4644 17.5742C20.6608 17.467 19.817 17.3822 18.9331 17.3197C18.0581 17.2483 17.1786 17.1992 16.2947 17.1724C15.4197 17.1367 14.5983 17.1188 13.8304 17.1188C13.3125 17.1188 12.8125 17.1277 12.3304 17.1456C11.8572 17.1545 11.384 17.1858 10.9108 17.2393C10.4465 17.2929 9.97778 17.3688 9.50452 17.467C9.33655 17.5026 9.16553 17.5428 8.9917 17.5877C8.68506 17.6669 8.36938 17.7606 8.04468 17.8688C8.03516 17.8726 8.02661 17.8768 8.01904 17.8815C8.00916 17.8876 8.0011 17.8945 7.99475 17.902C7.9834 17.9155 7.97778 17.9312 7.97778 17.9492C7.97778 17.9849 8 18.0117 8.04468 18.0295C8.36609 18.1456 8.81702 18.2795 9.39734 18.4313C9.97778 18.5742 10.7411 18.6724 11.6875 18.726Z" fill="#AFD173"/>
</svg>
