<svg width="30" height="30" viewBox="0 0 30 30" fill="none" xmlns="http://www.w3.org/2000/svg">
<g clip-path="url(#clip0_1_237)">
<path d="M15 0C23.2843 0 30 6.71573 30 15C30 23.2843 23.2843 30 15 30C6.71573 30 0 23.2843 0 15C0 6.71573 6.71573 0 15 0ZM15.1318 6.875C10.6543 6.87503 6.87513 10.3549 6.875 14.9805C6.875 16.917 7.23163 18.2539 7.5459 19.4541C7.80973 20.4283 8.04294 21.321 8.04297 22.377C8.15549 23.7838 10.736 22.9614 11.5508 21.9092C12.839 22.8445 13.5801 23.0791 15.1748 23.0791C17.2919 23.0677 19.3181 22.2123 20.8086 20.7021C22.299 19.192 23.1322 17.1497 23.125 15.0234C23.1249 10.5264 19.6133 6.875 15.1318 6.875ZM15.2402 10.873V10.877C16.3265 10.9394 17.3457 11.4283 18.0771 12.2373C18.8083 13.0462 19.1938 14.1114 19.1514 15.2031C19.0784 16.2925 18.5831 17.3097 17.7715 18.0361C16.9596 18.7627 15.8957 19.1404 14.8096 19.0879C14.1024 19.0309 13.4226 18.7878 12.8389 18.3828C12.4859 18.7373 11.9195 19.1968 11.6943 19.1426C11.2248 19.0179 10.674 16.6213 10.9844 14.6533C11.3608 12.2763 13.0598 10.7602 15.2402 10.873Z" fill="#8F8F8F"/>
</g>
<defs>
<clipPath id="clip0_1_237">
<rect width="30" height="30" fill="white"/>
</clipPath>
</defs>
</svg>
