<svg width="50" height="50" viewBox="0 0 50 50" fill="none" xmlns="http://www.w3.org/2000/svg">
<rect x="0.208333" y="0.208333" width="49.5833" height="49.5833" rx="24.7917" fill="#181818"/>
<rect x="0.208333" y="0.208333" width="49.5833" height="49.5833" rx="24.7917" stroke="#9CDE6A" stroke-width="0.416667"/>
<circle cx="41.25" cy="41.25" r="8.33333" fill="#9CDE6A" stroke="#181818" stroke-width="0.833333"/>
<path d="M38.8368 41.6349L40.6045 43.4027L44.3227 39.6845" stroke="#181818" stroke-width="1.25" stroke-linecap="round" stroke-linejoin="round"/>
<g clip-path="url(#clip0_1_386)">
<path d="M32.3734 27.6468C31.8626 29.0697 30.9518 30.3018 29.7765 31.2075M29.7765 31.2075L29.7765 31.1354C29.7765 29.4957 28.447 28.1663 26.8074 28.1663H23.1925C21.5529 28.1663 20.2234 29.4957 20.2234 31.1354L20.2234 31.2075M29.7765 31.2075C28.4545 32.2261 26.798 32.8323 25 32.8323C23.2019 32.8323 21.5455 32.2262 20.2234 31.2075M20.2234 31.2075C18.3654 29.7755 17.168 27.5278 17.168 25.0004C17.168 20.6748 20.6744 17.1677 25 17.1677C28.2857 17.1677 31.0988 19.1913 32.2614 22.0601M24.9998 14.1546V16.9822M24.9997 33.0018V35.8294M16.9899 24.992H14.1623M32.663 17.3287L30.6636 19.3282M19.3359 30.6558L17.3365 32.6552M17.3365 17.3287L19.3359 19.3282M30.6636 30.6558L32.663 32.6552M28.3049 24.8613C28.3049 26.6866 26.8252 28.1663 24.9999 28.1663C23.1747 28.1663 21.695 26.6866 21.695 24.8613C21.695 23.036 23.1747 21.5563 24.9999 21.5563C26.8252 21.5563 28.3049 23.036 28.3049 24.8613ZM27.1226 11.908C27.1226 13.0804 26.1722 14.0308 24.9998 14.0308C23.8274 14.0308 22.8769 13.0804 22.8769 11.908C22.8769 10.7356 23.8274 9.78516 24.9998 9.78516C26.1722 9.78516 27.1226 10.7356 27.1226 11.908ZM27.1226 38.092C27.1226 39.2644 26.1721 40.2148 24.9997 40.2148C23.8273 40.2148 22.8769 39.2644 22.8769 38.092C22.8769 36.9196 23.8273 35.9691 24.9997 35.9691C26.1721 35.9691 27.1226 36.9196 27.1226 38.092ZM35.7583 17.2436C34.9293 18.0726 33.5852 18.0726 32.7561 17.2436C31.9271 16.4146 31.9271 15.0705 32.7561 14.2415C33.5852 13.4125 34.9293 13.4125 35.7583 14.2415C36.5873 15.0705 36.5873 16.4146 35.7583 17.2436ZM17.2434 35.7585C16.4144 36.5875 15.0703 36.5875 14.2412 35.7585C13.4122 34.9295 13.4122 33.5854 14.2412 32.7563C15.0703 31.9273 16.4144 31.9273 17.2434 32.7563C18.0724 33.5854 18.0724 34.9295 17.2434 35.7585ZM38.0917 27.1229C36.9193 27.1229 35.9689 26.1724 35.9689 25C35.9689 23.8276 36.9193 22.8772 38.0917 22.8772C39.2641 22.8772 40.2146 23.8276 40.2146 25C40.2146 26.1724 39.2641 27.1229 38.0917 27.1229ZM11.9078 27.1229C10.7353 27.1229 9.78491 26.1724 9.78491 25C9.78491 23.8276 10.7353 22.8772 11.9078 22.8772C13.0802 22.8772 14.0306 23.8276 14.0306 25C14.0306 26.1724 13.0802 27.1229 11.9078 27.1229ZM32.7561 35.7585C31.9271 34.9295 31.9271 33.5854 32.7561 32.7563C33.5851 31.9273 34.9292 31.9273 35.7583 32.7563C36.5873 33.5854 36.5873 34.9295 35.7583 35.7585C34.9292 36.5875 33.5851 36.5875 32.7561 35.7585ZM14.2412 17.2436C13.4122 16.4146 13.4122 15.0705 14.2412 14.2415C15.0702 13.4125 16.4143 13.4125 17.2433 14.2415C18.0724 15.0705 18.0724 16.4146 17.2433 17.2436C16.4143 18.0726 15.0702 18.0726 14.2412 17.2436Z" stroke="#9CDE6A" stroke-width="0.833333" stroke-miterlimit="10" stroke-linecap="round" stroke-linejoin="round"/>
</g>
<defs>
<clipPath id="clip0_1_386">
<rect width="31.6667" height="31.6667" fill="white" transform="translate(9.16675 9.16675)"/>
</clipPath>
</defs>
</svg>
