<svg width="50" height="51" viewBox="0 0 50 51" fill="none" xmlns="http://www.w3.org/2000/svg">
<g clip-path="url(#clip0_1_346)">
<rect width="50" height="50" rx="25" fill="#181818"/>
<g clip-path="url(#clip1_1_346)">
<path d="M30.67 26.9817V25.8571H19.3293V50.0506M19.3293 50.0506H30.67M19.3293 50.0506V34.9296H12.9029V50.0506M19.3293 50.0506H12.9029M19.3293 50.0506V47.0264H30.67V50.0506M30.67 50.0506V33.7956M30.67 50.0506H37.0964M30.67 50.0506V34.9296H37.0964V50.0506M12.9029 50.0506V40.978H6.40088V50.0506H12.9029ZM37.0964 50.0506H43.5985V40.978H37.0964V50.0506ZM37.0964 13.6548L34.4094 14.0926M37.0964 22.0311L34.4094 21.5933M12.9029 22.0311L15.5899 21.5933M12.9029 13.6548L15.5899 14.0926M34.4094 17.8429H37.0964M12.9029 17.8429H15.5899M31.4261 30.3934C31.4261 30.8109 31.0876 31.1494 30.67 31.1494C30.2525 31.1494 29.914 30.8109 29.914 30.3934C29.914 29.9758 30.2525 29.6373 30.67 29.6373C31.0876 29.6373 31.4261 29.9758 31.4261 30.3934ZM24.9997 21.1281L21.7289 22.8329L22.3535 19.2221L19.7073 16.665L23.3643 16.1382L24.9997 12.853L26.6351 16.1382L30.292 16.665L27.6458 19.2221L28.2705 22.8329L24.9997 21.1281Z" stroke="#9CDE6A" stroke-width="1.01868" stroke-miterlimit="10" stroke-linecap="round" stroke-linejoin="round"/>
</g>
</g>
<rect x="0.403226" y="0.403226" width="49.1936" height="49.1936" rx="24.5968" stroke="#9CDE6A" stroke-width="0.806452"/>
<circle cx="41.25" cy="41.0564" r="8.33333" fill="#9CDE6A" stroke="#181818" stroke-width="0.833333"/>
<path d="M38.8365 41.4413L40.6043 43.2091L44.3225 39.4909" stroke="#181818" stroke-width="1.25" stroke-linecap="round" stroke-linejoin="round"/>
<defs>
<clipPath id="clip0_1_346">
<rect width="50" height="50" rx="25" fill="white"/>
</clipPath>
<clipPath id="clip1_1_346">
<rect width="38.7097" height="38.7097" fill="white" transform="translate(5.64526 12.0969)"/>
</clipPath>
</defs>
</svg>
