<svg width="32" height="32" viewBox="0 0 32 32" fill="none" xmlns="http://www.w3.org/2000/svg">
<rect width="32" height="32" rx="16" fill="#111111"/>
<path fill-rule="evenodd" clip-rule="evenodd" d="M9.18955 16C9.18955 16.4173 9.52782 16.7556 9.9451 16.7556L20.2309 16.7556L16.1781 20.8083C15.8831 21.1034 15.8831 21.5818 16.1781 21.8768C16.4732 22.1719 16.9516 22.1719 17.2466 21.8768L22.5892 16.5343C22.8843 16.2392 22.8843 15.7608 22.5892 15.4657L17.2466 10.1232C16.9516 9.82809 16.4732 9.82809 16.1781 10.1232C15.8831 10.4182 15.8831 10.8966 16.1781 11.1917L20.2309 15.2444L9.9451 15.2444C9.52782 15.2444 9.18955 15.5827 9.18955 16Z" fill="#8CA75C"/>
</svg>
